<svg width="163" height="160" viewBox="0 0 163 160" fill="none" xmlns="http://www.w3.org/2000/svg">
<path fill-rule="evenodd" clip-rule="evenodd" d="M107.432 156.759C100.178 158.869 89.439 160 81.501 160C73.79 160 63.2693 158.933 56.2011 156.941C21.9982 147.296 3.05176e-05 118.396 3.05176e-05 81.2213C3.05176e-05 36.3635 36.4883 0.00012207 81.5 0.00012207C126.512 0.00012207 163 36.3635 163 81.2213C163 118.168 141.31 146.909 107.43 156.757L107.432 156.759ZM15.3128 94.3497C17.4921 107.724 28.4261 126.56 40.7437 134.656C53.0633 142.754 69.2386 141.374 69.2386 141.374C69.2386 141.374 68.3253 130.345 66.4814 124.885C64.6376 119.428 52.1573 104.167 49.3223 101.069C46.4893 97.9721 32.4945 92.7393 28.4888 91.6041C24.4809 90.4672 20.8196 86.3842 17.4601 88.2444C14.0984 90.1046 15.3128 94.3497 15.3128 94.3497ZM137.568 48.5457C135.546 47.0519 134.38 45.1917 133.728 43.7584C129.431 26.3616 107.682 13.1249 81.4956 13.1249C54.7782 13.1249 32.6829 26.9055 29.0251 44.8234C28.3278 46.0415 27.2817 47.4012 25.7316 48.5457C21.8829 51.3917 12.7644 59.9959 17.7669 65.9522C21.4186 70.2995 26.6393 67.7443 30.8293 66.0976C36.8496 63.2062 44.5586 60.8719 52.0949 58.9724C62.4512 56.3606 64.3291 54.0415 81.8046 54.0415C99.28 54.0415 100.527 56.1095 111.046 59.1198C118.063 61.1292 124.918 63.1159 130.542 65.4067C134.942 66.7438 141.298 70.9965 145.535 65.9487C150.536 59.9964 141.419 51.3922 137.57 48.5461L137.568 48.5457ZM146.453 88.2402C143.093 86.3781 139.43 90.463 135.424 91.5998C131.417 92.7367 117.422 97.968 114.591 101.065C111.76 104.162 99.2777 119.423 97.4318 124.881C95.588 130.339 94.6746 141.37 94.6746 141.37C94.6746 141.37 110.852 142.75 123.17 134.652C135.489 126.554 146.421 107.72 148.6 94.3454C148.597 94.3492 149.813 90.1038 146.453 88.2398L146.453 88.2402Z" fill="black"/>
<path d="M83.462 68.6322C83.7607 68.3336 84.2193 68.1842 84.838 68.1842C84.9873 68.1842 85.062 68.2162 85.062 68.2802C84.5927 71.1176 84.358 74.1469 84.358 77.3682C84.358 80.6109 84.486 83.6722 84.742 86.5522C85.1047 86.5309 85.7553 86.5202 86.694 86.5202C87.6113 86.5202 88.646 86.6162 89.798 86.8082L90.31 87.6402L89.094 90.3922C87.75 89.6669 85.862 89.3042 83.43 89.3042C80.9767 89.3042 78.598 89.5922 76.294 90.1682C76.2087 90.1682 76.166 89.9869 76.166 89.6242C76.166 89.2616 76.326 88.9416 76.646 88.6642C78.3527 87.9389 79.9847 87.3949 81.542 87.0322C81.926 78.2429 82.566 72.1096 83.462 68.6322Z" fill="white"/>
<path d="M75.9645 92.3498C75.9645 92.2218 76.0072 92.1578 76.0925 92.1578H76.1565C77.6285 92.3284 79.2499 92.4138 81.0205 92.4138C84.3485 92.4138 87.2925 92.0084 89.8525 91.1978L90.2045 91.7738L89.1485 94.2698C87.2072 94.5044 85.1912 94.6218 83.1005 94.6218C81.0312 94.6218 78.9939 94.4404 76.9885 94.0778C76.7965 93.9924 76.5939 93.7471 76.3805 93.3418C76.1672 92.9578 76.0285 92.6271 75.9645 92.3498Z" fill="white"/>
</svg>
